<svg preserveAspectRatio="none" overflow="visible" style="display: block;" width="50" height="50" viewBox="0 0 50 50" fill="none" xmlns="http://www.w3.org/2000/svg">
<g id="Frame">
<path id="Vector" d="M33.3333 8.33333C35.2708 8.33333 36.2396 8.33333 37.0344 8.54629C39.191 9.12421 40.8758 10.8089 41.4537 12.9657C41.6667 13.7605 41.6667 14.7292 41.6667 16.6667V35.8333C41.6667 39.3338 41.6667 41.0838 40.9854 42.4208C40.3862 43.5969 39.4302 44.5529 38.2542 45.1521C36.9171 45.8333 35.1671 45.8333 31.6667 45.8333H18.3333C14.833 45.8333 13.0828 45.8333 11.7459 45.1521C10.5699 44.5529 9.61375 43.5969 9.01454 42.4208C8.33333 41.0838 8.33333 39.3338 8.33333 35.8333V16.6667C8.33333 14.7292 8.33333 13.7605 8.54629 12.9657C9.12421 10.8089 10.8089 9.12421 12.9657 8.54629C13.7605 8.33333 14.7292 8.33333 16.6667 8.33333M18.75 31.25L22.9167 35.4167L32.2917 26.0417M20 12.5H30C31.1669 12.5 31.7502 12.5 32.1958 12.2729C32.5879 12.0732 32.9065 11.7545 33.1062 11.3625C33.3333 10.9168 33.3333 10.3334 33.3333 9.16667V7.5C33.3333 6.33323 33.3333 5.74983 33.1062 5.30419C32.9065 4.91219 32.5879 4.59348 32.1958 4.39373C31.7502 4.16667 31.1669 4.16667 30 4.16667H20C18.8332 4.16667 18.2498 4.16667 17.8042 4.39373C17.4122 4.59348 17.0935 4.91219 16.8937 5.30419C16.6667 5.74983 16.6667 6.33323 16.6667 7.5V9.16667C16.6667 10.3334 16.6667 10.9168 16.8937 11.3625C17.0935 11.7545 17.4122 12.0732 17.8042 12.2729C18.2498 12.5 18.8332 12.5 20 12.5Z" stroke="#925E02" stroke-width="4.16667" stroke-linecap="round" stroke-linejoin="round"/>
</g>
</svg>
