<svg width="18" height="18" viewBox="0 0 18 18" fill="none" xmlns="http://www.w3.org/2000/svg">
<path d="M11.3406 2.46045C12.3909 2.98237 13.1126 4.06615 13.1126 5.31849C13.1126 6.57083 12.3909 7.65461 11.3406 8.1765M12.7582 11.8865C13.8296 12.3712 14.7942 13.1613 15.5934 14.1784M1.41748 14.1784C2.79715 12.4225 4.67027 11.3433 6.73345 11.3433C8.79662 11.3433 10.6698 12.4225 12.0494 14.1784M9.92304 5.31849C9.92304 7.08005 8.49502 8.50807 6.73345 8.50807C4.9719 8.50807 3.54387 7.08005 3.54387 5.31849C3.54387 3.55693 4.9719 2.12891 6.73345 2.12891C8.49502 2.12891 9.92304 3.55693 9.92304 5.31849Z" stroke="black" stroke-width="1.06319" stroke-linecap="round" stroke-linejoin="round"/>
</svg>
